<?xml version="1.0" encoding="utf-8"?>
<!-- Generator: Adobe Illustrator 24.0.2, SVG Export Plug-In . SVG Version: 6.00 Build 0)  -->
<svg version="1.1" id="_-e-Icon" xmlns="http://www.w3.org/2000/svg" xmlns:xlink="http://www.w3.org/1999/xlink" x="0px" y="0px"
	 viewBox="0 0 38.6 60" style="enable-background:new 0 0 38.6 60;" xml:space="preserve">
<style type="text/css">
	.st0{fill-rule:evenodd;clip-rule:evenodd;fill:#FF4C93;}
	.st1{fill:#FF4C93;}
</style>
<path id="Path" class="st0" d="M62.5,0C51.9,0,43.2,8.7,43.3,19.4c0,9.6,6.6,22.1,12.1,31c0.4,0.6,1.1,0.7,1.7,0.4c0,0,0,0,0,0
	c0.6-0.4,0.7-1.1,0.4-1.7c-9.7-15.5-11.8-24.7-11.8-29.7c-0.1-9.3,7.4-16.9,16.7-17c9.3-0.1,16.9,7.4,17,16.7c0,0.1,0,0.2,0,0.2
	c0,15.2-17.6,38.4-17.8,38.6c-0.4,0.5-0.3,1.3,0.2,1.7c0.5,0.4,1.3,0.3,1.7-0.2c0,0,0,0,0,0c0.7-1,18.3-24.1,18.3-40.1
	C81.9,8.7,73.2,0,62.5,0z"/>
<path id="Path-2" class="st0" d="M63,12.7c0.7,0,1.2-0.5,1.2-1.2s-0.5-1.2-1.2-1.2c-4.7,0-8.6,3.8-8.6,8.6c0,4.7,3.8,8.6,8.6,8.6
	c4.7,0,8.6-3.8,8.6-8.6c0-1.9-0.6-3.7-1.7-5.2c-0.4-0.5-1.2-0.6-1.7-0.2c-0.5,0.4-0.6,1.2-0.2,1.7l0,0c0.8,1.1,1.3,2.4,1.2,3.7
	c0,3.4-2.8,6.1-6.1,6.1c-3.4,0-6.1-2.8-6.1-6.1S59.6,12.7,63,12.7L63,12.7z"/>
<image style="overflow:visible;" width="349" height="335" xlink:href="3438EB39.jpg"  transform="matrix(0.2164 0 0 0.2164 -86.4639 -4.4286)">
</image>
<path class="st1" d="M11.8,21.4H7.4c-2,0-3.6,1.6-3.6,3.6v12.6c0,1.1,0.9,2,2,2s2-0.9,2-2V25.4h3.5v17.1h-1.2v0
	c-1.1,0-1.9,0.9-1.9,2s0.9,1.9,1.9,2v0h1.6c2,0,3.6-1.6,3.6-3.6V25C15.3,23.1,13.7,21.4,11.8,21.4z"/>
<path class="st1" d="M33.5,24.5c0,0-0.1,0-0.1-0.1c-0.8-0.7-1.9-0.7-6.2-0.4c-1,0.1-2.3,0.1-3.1,0.1c0-1.1,0.3-3.2,0.4-4.3
	c0.2-1.5,0.3-2.3,0.3-2.8c-0.3-2.2-2-4.3-5.5-4.3c-0.9,0-1.7,0.3-2.3,0.9c-1.5,1.5-1.3,4.5-1.2,7.1c0,0.5,0,1,0.1,1.4
	c0,0,0,0.1,0,0.1c0,0.8,0.7,1.5,1.5,1.5c0.8,0,1.4-0.6,1.5-1.4h0c0,0,0-0.1,0-0.1c0,0,0,0,0,0c0,0,0,0,0,0c0-0.5,0-1-0.1-1.6
	c-0.1-1.2-0.2-4.4,0.4-4.9c2.1,0,2.4,1.2,2.5,1.6c0,0.3-0.1,1.2-0.2,2c-0.6,4-1,6.9,1,7.6c0.7,0.2,1.9,0.2,4.8,0
	c1.3-0.1,3.5-0.2,4.3-0.1c0,0,0.1,0.1,0.1,0.1c0,0.3,0,1.2-0.3,3.4c-0.1,0.9-0.3,1.7-0.4,2.6c-0.5,3.4-0.9,7-2.6,7.3h-9.1v0
	c-0.8,0-1.5,0.7-1.5,1.5c0,0.8,0.7,1.5,1.5,1.5h9.4l0.1,0c4-0.6,4.7-5.3,5.3-9.9c0.1-0.8,0.2-1.7,0.4-2.5
	C35,26.7,34.8,25.5,33.5,24.5z"/>
</svg>
