<?xml version="1.0" encoding="utf-8"?>
<!-- Generator: Adobe Illustrator 24.0.2, SVG Export Plug-In . SVG Version: 6.00 Build 0)  -->
<svg version="1.1" id="_-e-Icon" xmlns="http://www.w3.org/2000/svg" xmlns:xlink="http://www.w3.org/1999/xlink" x="0px" y="0px"
	 viewBox="0 0 38.6 60" style="enable-background:new 0 0 38.6 60;" xml:space="preserve">
<style type="text/css">
	.st0{fill-rule:evenodd;clip-rule:evenodd;fill:#FF4C93;}
	.st1{fill:#FF4C93;}
	.st2{fill:#4C9FFF;}
	.st3{fill:#7444FF;}
</style>
<path id="Path" class="st0" d="M62.5,0C51.9,0,43.2,8.7,43.3,19.4c0,9.6,6.6,22.1,12.1,31c0.4,0.6,1.1,0.7,1.7,0.4c0,0,0,0,0,0
	c0.6-0.4,0.7-1.1,0.4-1.7c-9.7-15.5-11.8-24.7-11.8-29.7c-0.1-9.3,7.4-16.9,16.7-17c9.3-0.1,16.9,7.4,17,16.7c0,0.1,0,0.2,0,0.2
	c0,15.2-17.6,38.4-17.8,38.6c-0.4,0.5-0.3,1.3,0.2,1.7c0.5,0.4,1.3,0.3,1.7-0.2c0,0,0,0,0,0c0.7-1,18.3-24.1,18.3-40.1
	C81.9,8.7,73.2,0,62.5,0z"/>
<path id="Path-2" class="st0" d="M63,12.7c0.7,0,1.2-0.5,1.2-1.2s-0.5-1.2-1.2-1.2c-4.7,0-8.6,3.8-8.6,8.6c0,4.7,3.8,8.6,8.6,8.6
	c4.7,0,8.6-3.8,8.6-8.6c0-1.9-0.6-3.7-1.7-5.2c-0.4-0.5-1.2-0.6-1.7-0.2c-0.5,0.4-0.6,1.2-0.2,1.7l0,0c0.8,1.1,1.3,2.4,1.2,3.7
	c0,3.4-2.8,6.1-6.1,6.1c-3.4,0-6.1-2.8-6.1-6.1S59.6,12.7,63,12.7L63,12.7z"/>
<image style="overflow:visible;" width="349" height="335" xlink:href="D03A5725.jpg"  transform="matrix(0.2164 0 0 0.2164 -86.4639 -4.4286)">
</image>
<g>
	<path class="st1" d="M95.8,21.4h-4.3c-2,0-3.6,1.6-3.6,3.6v12.6c0,1.1,0.9,2,2,2s2-0.9,2-2V25.4h3.5v17.1h-1.2v0
		c-1.1,0-1.9,0.9-1.9,2s0.9,1.9,1.9,2v0h1.6c2,0,3.6-1.6,3.6-3.6V25C99.3,23.1,97.7,21.4,95.8,21.4z"/>
	<path class="st1" d="M117.5,24.5c0,0-0.1,0-0.1-0.1c-0.8-0.7-1.9-0.7-6.2-0.4c-1,0.1-2.3,0.1-3.1,0.1c0-1.1,0.3-3.2,0.4-4.3
		c0.2-1.5,0.3-2.3,0.3-2.8c-0.3-2.2-2-4.3-5.5-4.3c-0.9,0-1.7,0.3-2.3,0.9c-1.5,1.5-1.3,4.5-1.2,7.1c0,0.5,0,1,0.1,1.4
		c0,0,0,0.1,0,0.1c0,0.8,0.7,1.5,1.5,1.5c0.8,0,1.4-0.6,1.5-1.4h0c0,0,0-0.1,0-0.1c0,0,0,0,0,0c0,0,0,0,0,0c0-0.5,0-1-0.1-1.6
		c-0.1-1.2-0.2-4.4,0.4-4.9c2.1,0,2.4,1.2,2.5,1.6c0,0.3-0.1,1.2-0.2,2c-0.6,4-1,6.9,1,7.6c0.7,0.2,1.9,0.2,4.8,0
		c1.3-0.1,3.5-0.2,4.3-0.1c0,0,0.1,0.1,0.1,0.1c0,0.3,0,1.2-0.3,3.4c-0.1,0.9-0.3,1.7-0.4,2.6c-0.5,3.4-0.9,7-2.6,7.3h-9.1v0
		c-0.8,0-1.5,0.7-1.5,1.5c0,0.8,0.7,1.5,1.5,1.5h9.4l0.1,0c4-0.6,4.7-5.3,5.3-9.9c0.1-0.8,0.2-1.7,0.4-2.5
		C119,26.7,118.8,25.5,117.5,24.5z"/>
</g>
<path class="st2" d="M88.8,18.4c1.8,0,3.3-1.5,3.3-3.3s-1.5-3.3-3.3-3.3s-3.3,1.5-3.3,3.3S87,18.4,88.8,18.4z M77.9,33.7l-1,2.4
	h-4.6c-1.2,0-2.2,1-2.2,2.2s1,2.2,2.2,2.2h5.4c1.3,0,2.5-0.8,3.1-2l0.6-1.4l-0.7-0.4C79.3,36,78.4,34.9,77.9,33.7L77.9,33.7z
	 M96.6,27.3h-3l-1.8-3.7c-0.9-1.8-2.5-3.1-4.3-3.5l-4.9-1.5c-2-0.5-4,0-5.6,1.2l-2.7,2.1c-1,0.7-1.2,2.1-0.4,3.1s2.1,1.2,3.1,0.4
	l2.7-2.1c0.5-0.4,1.2-0.6,1.7-0.4l1,0.3l-2.6,6.1c-0.9,2-0.1,4.4,1.8,5.6l5.9,3.5l-1.9,6.1c-0.4,1.2,0.3,2.4,1.5,2.8
	c0.2,0.1,0.4,0.1,0.7,0.1c0.9,0,1.8-0.6,2.1-1.6l2.2-7c0.4-1.4-0.2-3-1.5-3.8l-4.2-2.5l2.2-5.4l1.4,2.9c0.6,1.1,1.7,1.9,3,1.9h3.7
	c1.2,0,2.2-1,2.2-2.2S97.8,27.3,96.6,27.3L96.6,27.3z"/>
<rect x="-7.2" y="12.5" class="st1" width="4.7" height="34.7"/>
<path class="st3" d="M71.8,20.2h-3.9c-0.4,0-0.7,0.1-1,0.4l-4.5,4.1c0,0,0,0,0,0c-0.8,0.7-0.7,1.9-0.1,2.6c0.6,0.6,1.8,0.8,2.6,0.1
	c0,0,0,0,0,0l3.7-3.4c0.3-0.3,0.8-0.3,1,0c0.3,0.3,0.3,0.8,0,1l-1.2,1.1l6.7,5.4c0.1,0.1,0.3,0.2,0.4,0.4v-8.9l-2.5-2.5
	C72.6,20.3,72.2,20.2,71.8,20.2L71.8,20.2z M76.8,23.1v10.3c0,0.8,0.7,1.5,1.5,1.5h2.9V23.1H76.8z M79,33.4c-0.4,0-0.7-0.3-0.7-0.7
	c0-0.4,0.3-0.7,0.7-0.7s0.7,0.3,0.7,0.7C79.8,33.1,79.5,33.4,79,33.4z M51.9,34.9h2.9c0.8,0,1.5-0.7,1.5-1.5V23.1h-4.4V34.9z
	 M54.1,32c0.4,0,0.7,0.3,0.7,0.7c0,0.4-0.3,0.7-0.7,0.7c-0.4,0-0.7-0.3-0.7-0.7C53.3,32.3,53.7,32,54.1,32z M74.1,32.8l-6.9-5.6
	l-1.4,1.3c-1.4,1.2-3.5,1.1-4.7-0.2c-1.2-1.4-1.1-3.4,0.2-4.7l3.8-3.4h-3.8c-0.4,0-0.8,0.2-1,0.4l-2.5,2.5v10.3h0.8l4.2,3.8
	c1.3,1,3.1,0.8,4.1-0.4l0,0l0.8,0.7c0.7,0.6,1.8,0.5,2.4-0.2l1.4-1.8l0.2,0.2c0.6,0.5,1.6,0.4,2.1-0.2l0.4-0.5
	C74.8,34.2,74.7,33.3,74.1,32.8L74.1,32.8z"/>
<path class="st2" d="M24.2,33.9c0,0.5-0.4,1-1,1h-5.8c-0.5,0-1-0.4-1-1V31H4.8v8.8c0,1.6,1.4,2.9,2.9,2.9H33c1.6,0,2.9-1.4,2.9-2.9
	V31H24.2V33.9z M33,21.2h-4.9v-2.9c0-1.6-1.4-2.9-2.9-2.9h-9.7c-1.6,0-2.9,1.4-2.9,2.9v2.9H7.7c-1.6,0-2.9,1.4-2.9,2.9V29h31.1v-4.9
	C35.9,22.6,34.5,21.2,33,21.2z M24.2,21.2h-7.8v-1.9h7.8V21.2z"/>
</svg>
